<?xml version="1.0" standalone="no"?>
<!DOCTYPE svg PUBLIC "-//W3C//DTD SVG 20010904//EN"
 "http://www.w3.org/TR/2001/REC-SVG-20010904/DTD/svg10.dtd">
<svg version="1.0" xmlns="http://www.w3.org/2000/svg"
 width="600.000000pt" height="300.000000pt" viewBox="0 0 600.000000 300.000000"
 preserveAspectRatio="xMidYMid meet">

<g transform="translate(0.000000,300.000000) scale(0.100000,-0.100000)"
fill="#fffff" stroke="none">
<path d="M2870 2466 l0 -146 112 0 112 0 -67 68 c-37 37 -67 71 -67 74 0 4 30
8 67 10 l66 3 -99 61 c-54 34 -105 64 -111 68 -10 6 -13 -25 -13 -138z m75 54
c4 -6 11 -8 16 -5 13 9 11 -9 -3 -23 -19 -19 -56 -14 -69 9 -7 13 -7 19 -1 15
6 -3 13 -2 17 4 3 5 12 10 20 10 8 0 17 -5 20 -10z m12 -93 c2 -3 6 -14 8 -26
5 -29 -36 -51 -60 -31 -16 14 -17 50 -1 62 9 6 45 3 53 -5z"/>
<path d="M2648 2583 c-10 -2 -18 -8 -18 -13 0 -5 -18 -15 -40 -21 -42 -13 -47
-18 -30 -35 8 -8 -1 -18 -27 -36 -45 -29 -93 -41 -93 -23 0 7 -7 15 -15 19
-19 7 -75 -4 -75 -15 0 -4 -18 -14 -40 -20 -40 -12 -49 -22 -30 -34 17 -11 11
-20 -24 -39 -19 -10 -45 -29 -57 -42 -12 -13 -31 -24 -41 -24 -10 0 -18 -7
-18 -15 0 -10 -10 -15 -30 -15 -16 0 -30 -4 -30 -10 0 -5 -9 -10 -20 -10 -25
0 -26 -16 -3 -29 21 -11 22 -10 -40 -46 -26 -15 -54 -40 -63 -56 -17 -34 -10
-36 49 -15 37 14 77 11 77 -4 0 -14 -52 -50 -71 -50 -11 0 -19 -7 -19 -15 0
-9 -9 -15 -23 -15 -25 0 -77 -21 -77 -31 0 -4 7 -12 15 -19 13 -11 6 -18 -45
-51 -52 -34 -80 -63 -80 -83 0 -11 41 -6 78 9 24 10 38 12 40 5 2 -5 11 -10
20 -10 12 0 9 -7 -11 -28 -15 -15 -32 -43 -38 -62 -7 -19 -16 -38 -22 -41 -5
-4 1 -16 13 -27 l22 -20 -23 -12 c-12 -7 -28 -17 -33 -22 -6 -5 -25 -18 -43
-28 -18 -11 -39 -33 -48 -51 l-17 -31 44 7 c24 4 51 11 60 16 19 10 68 2 68
-11 0 -4 -9 -15 -21 -26 -12 -10 -27 -31 -35 -46 -15 -29 -19 -98 -6 -98 19 0
83 76 104 122 12 27 26 47 32 45 11 -4 36 -104 28 -112 -3 -3 -16 -5 -29 -5
-14 0 -23 -6 -23 -15 0 -9 -6 -15 -12 -14 -37 4 -41 -1 -19 -24 l22 -24 -61
-38 c-62 -39 -100 -77 -100 -100 0 -14 75 -4 112 16 16 9 23 9 26 0 2 -6 10
-11 18 -11 20 0 18 -8 -16 -46 -32 -37 -55 -106 -43 -129 14 -23 77 35 109
100 40 83 56 83 68 1 4 -23 15 -56 26 -74 l20 -32 -25 -36 c-14 -20 -25 -41
-25 -45 0 -11 53 -1 99 18 19 7 37 10 40 5 3 -5 14 -11 24 -15 20 -7 14 -27
-7 -27 -7 0 -24 -22 -37 -50 -13 -27 -26 -50 -29 -50 -13 0 -206 73 -217 82
-7 6 -10 20 -7 32 4 18 -6 27 -81 63 -47 24 -85 41 -85 39 0 -2 11 -29 25 -60
14 -31 25 -60 25 -65 0 -5 -29 -17 -65 -27 -36 -10 -65 -21 -65 -24 0 -3 32
-18 70 -34 56 -22 69 -32 65 -46 -8 -24 17 -42 128 -94 97 -45 99 -46 92 -75
-7 -34 1 -40 160 -119 179 -89 341 -140 535 -168 91 -13 155 -15 310 -11 359
12 611 68 864 193 113 55 161 94 153 124 -6 24 2 30 83 65 80 35 130 71 130
93 0 12 24 30 73 54 l72 35 -57 13 c-84 19 -85 20 -65 83 9 29 17 57 17 60 0
4 -33 -10 -74 -30 -54 -26 -72 -40 -69 -52 3 -11 -9 -24 -34 -38 -42 -23 -222
-103 -234 -103 -11 0 -37 90 -28 96 17 10 9 22 -11 17 -20 -5 -50 12 -50 29 0
5 9 6 20 3 12 -4 20 -2 20 5 0 8 9 10 28 5 105 -29 122 -23 81 29 -20 25 -20
28 -5 51 9 14 22 51 29 82 7 31 19 59 25 61 7 2 21 -16 31 -41 21 -48 72 -111
104 -128 19 -11 20 -9 15 40 -4 38 -13 62 -37 91 -35 44 -37 50 -17 50 8 0 16
5 18 11 3 9 10 9 26 0 26 -14 112 -31 112 -22 0 19 -43 72 -69 86 -17 8 -46
26 -65 38 -32 22 -33 24 -14 36 20 13 19 38 -2 33 -7 -1 -18 5 -25 14 -7 10
-19 15 -29 11 -9 -4 -16 -2 -16 3 0 5 -7 7 -16 3 -14 -5 -16 -2 -10 23 20 82
28 104 36 104 5 0 21 -22 35 -49 27 -53 92 -124 106 -115 25 15 -12 120 -52
147 -12 9 -21 18 -18 19 37 23 46 25 83 12 21 -8 50 -14 63 -14 l25 0 -19 32
c-17 30 -84 80 -126 94 -17 6 -17 8 3 29 18 19 19 24 7 32 -8 4 -19 24 -26 44
-6 20 -23 47 -36 59 -14 13 -25 27 -25 31 0 15 42 16 90 2 28 -8 54 -12 57 -9
16 16 -65 89 -132 120 -5 3 -2 10 8 16 23 15 22 30 -2 30 -11 0 -21 4 -23 10
-1 5 -15 11 -30 12 -16 1 -28 8 -28 15 0 7 -4 14 -10 14 -20 3 -25 5 -45 16
-20 12 -20 12 -1 26 16 12 25 12 59 0 22 -8 46 -13 54 -11 22 4 -15 48 -71 83
-41 26 -44 30 -31 45 17 19 11 31 -11 23 -8 -3 -14 0 -14 6 0 6 -9 11 -20 11
-11 0 -28 9 -37 19 -9 11 -20 18 -25 15 -5 -3 -21 8 -36 24 -15 16 -44 39 -65
52 -27 16 -35 26 -28 33 18 18 13 23 -29 36 -22 6 -40 16 -40 20 0 5 -15 11
-32 15 -25 5 -37 2 -48 -11 -20 -24 -62 -21 -104 8 -27 18 -32 26 -23 37 12
15 -5 32 -35 32 -9 0 -20 5 -23 11 -10 15 -53 29 -70 23 -8 -4 -15 -13 -15
-21 0 -9 -6 -12 -18 -9 -25 8 -51 -23 -59 -68 -4 -29 -1 -42 16 -59 18 -20 19
-28 11 -57 -13 -45 -6 -49 30 -15 l30 29 0 -37 c0 -66 26 -57 45 17 12 46 30
57 40 24 11 -33 43 -76 67 -89 20 -11 21 -9 14 22 -3 19 -16 47 -27 63 -17 22
-19 30 -8 36 7 5 21 4 30 -1 14 -7 16 -17 12 -45 -5 -30 -2 -39 19 -57 19 -17
23 -27 17 -42 -4 -11 -8 -31 -8 -44 -1 -25 0 -24 34 9 l35 34 0 -41 c0 -23 4
-45 10 -48 10 -6 35 41 45 88 3 15 10 27 15 27 18 0 40 -71 34 -109 -4 -27 -1
-41 14 -58 11 -13 24 -23 29 -23 7 0 6 -14 -3 -37 -25 -71 -14 -82 34 -33 17
17 32 30 34 30 2 0 2 -37 1 -81 -1 -78 0 -83 28 -110 25 -24 28 -32 19 -49
-13 -23 -86 -64 -104 -57 -30 12 -247 175 -306 231 -129 121 -174 149 -300
185 -149 44 -161 45 -185 26 -19 -15 -19 -15 7 -4 34 15 84 4 66 -14 -6 -7
-23 -11 -37 -10 -20 3 -41 -9 -84 -47 -32 -27 -68 -50 -80 -50 -20 0 -20 1 4
27 17 18 8 14 -31 -15 -77 -57 -179 -105 -290 -137 -56 -16 -145 -53 -217 -91
-67 -35 -124 -64 -127 -64 -15 0 -3 25 20 45 27 23 42 79 24 90 -6 4 -8 11 -4
16 3 5 10 7 15 4 5 -4 9 18 9 51 l0 58 40 -39 40 -39 0 26 c0 15 -4 38 -9 51
-8 20 -6 26 14 37 28 15 35 36 28 85 -5 40 14 98 30 92 5 -1 16 -25 22 -51 7
-26 20 -55 29 -64 15 -15 16 -12 16 38 l0 54 35 -34 35 -34 0 28 c0 15 -4 35
-9 44 -6 13 -1 23 20 40 l29 24 0 -23 c0 -22 1 -22 31 7 17 16 38 44 45 62 19
43 29 40 42 -10 6 -24 18 -52 26 -63 14 -19 15 -17 16 28 0 26 3 47 6 47 3 0
15 -11 26 -25 11 -14 24 -25 29 -25 11 0 12 40 0 59 -6 10 -1 22 16 39 20 20
24 31 19 55 -9 45 -35 80 -53 73 -10 -4 -21 2 -30 14 -14 20 -22 22 -55 13z
m-79 -162 c12 -8 10 -15 -10 -39 -30 -39 -36 -39 -41 -2 -6 39 21 60 51 41z
m1180 -110 c8 -5 16 -16 17 -25 2 -15 -15 -15 -63 0 -27 8 -13 25 27 33 3 0
11 -3 19 -8z m-1452 -25 c-2 -6 -18 -13 -35 -17 -27 -5 -32 -3 -32 12 0 9 8
19 18 21 25 6 53 -3 49 -16z m773 -96 c13 -8 13 -10 -2 -10 -9 0 -20 5 -23 10
-8 13 5 13 25 0z m-32 -38 c2 -7 -2 -10 -12 -6 -9 3 -16 11 -16 16 0 13 23 5
28 -10z m59 2 c-3 -3 -12 -4 -19 -1 -8 3 -5 6 6 6 11 1 17 -2 13 -5z m141 -26
c25 -25 1 -32 -41 -13 -15 6 -16 10 -5 16 18 12 32 11 46 -3z m-93 -28 c3 -11
15 -20 25 -20 30 0 32 -16 5 -34 -48 -32 -103 22 -63 62 17 17 26 15 33 -8z
m-991 -27 c3 -16 9 -39 12 -52 7 -24 7 -24 -16 -8 -17 12 -28 13 -42 6 -22
-12 -22 -12 2 39 24 49 35 53 44 15z m904 15 c-5 -13 -58 -31 -58 -19 0 8 38
29 53 30 5 1 7 -4 5 -11z m817 2 c3 -5 8 -19 10 -30 3 -18 0 -20 -18 -14 -29
9 -30 9 -22 33 7 22 20 27 30 11z m-787 -62 c21 -21 14 -26 -55 -33 -36 -4
-73 -9 -81 -13 -9 -3 -13 0 -10 8 4 13 87 48 119 49 8 1 20 -4 27 -11z m-158
-38 c0 -5 -7 -10 -16 -10 -8 0 -12 5 -9 10 3 6 10 10 16 10 5 0 9 -4 9 -10z
m455 -60 c-13 -15 -15 -24 -8 -31 8 -8 5 -17 -9 -31 -15 -15 -22 -17 -34 -7
-11 9 -18 8 -34 -6 -26 -23 -35 -14 -23 22 7 19 17 29 35 31 14 2 34 12 44 23
9 10 24 19 32 19 12 0 12 -4 -3 -20z m-485 -18 c0 -4 -21 -18 -46 -30 l-46
-23 37 -29 c21 -17 42 -30 47 -30 5 0 8 -6 5 -12 -2 -7 -9 -12 -15 -11 -6 2
-27 -4 -46 -12 -26 -11 -36 -22 -36 -37 l0 -22 -20 22 c-12 12 -24 22 -28 22
-17 -1 -34 -19 -29 -33 4 -10 -6 -18 -32 -26 -58 -17 -64 -15 -48 17 8 15 17
48 21 74 7 46 7 47 40 41 45 -7 76 10 68 39 -4 16 -2 20 9 16 8 -3 35 5 59 18
49 25 60 28 60 16z m515 -3 c12 -19 -5 -23 -22 -6 -16 16 -16 17 -1 17 9 0 20
-5 23 -11z m-484 -71 c24 -30 24 -38 -1 -38 -11 0 -20 4 -20 9 0 5 -10 11 -22
15 -22 5 -22 6 -3 20 26 20 24 20 46 -6z m1077 -3 c17 -37 15 -47 -10 -43 -23
3 -34 28 -24 54 8 21 21 17 34 -11z m-2000 -38 c3 -21 -1 -27 -17 -27 -11 0
-24 -8 -30 -17 -20 -37 -21 -3 -1 37 23 45 43 48 48 7z m1895 0 c-19 -29 -151
-147 -165 -147 -22 0 -29 11 -17 27 12 14 9 16 -15 7 -13 -5 -13 -9 1 -39 16
-33 15 -34 -10 -65 -15 -17 -27 -35 -27 -38 -1 -18 -18 -32 -33 -26 -21 8 -22
47 -2 64 8 7 15 21 15 32 0 16 -3 17 -22 7 -17 -9 -24 -8 -34 5 -10 15 -12 14
-18 -7 -3 -14 -15 -27 -27 -30 -18 -5 -21 -11 -16 -36 6 -30 6 -30 -76 -56
-89 -29 -143 -28 -218 2 -44 17 -45 19 -22 45 12 13 30 18 68 18 44 0 55 4 81
31 32 34 74 59 99 59 17 0 182 68 292 120 l62 29 3 -27 3 -27 35 35 c32 33 60
44 43 17z m-1343 8 c0 -7 -172 -135 -182 -135 -4 0 1 -9 12 -20 11 -11 20 -24
20 -30 0 -5 6 -10 14 -10 15 0 26 21 26 52 0 14 5 18 15 15 8 -4 17 -2 21 4 3
5 13 8 22 5 10 -2 29 -7 44 -10 18 -4 30 -15 33 -29 4 -15 19 -28 39 -35 19
-7 45 -22 58 -35 25 -22 39 -28 70 -31 15 -1 43 -28 73 -69 12 -18 15 -18 39
-2 32 21 64 12 79 -23 11 -27 55 -71 70 -72 5 0 15 -7 23 -15 11 -11 20 -12
34 -5 36 19 50 13 43 -21 l-6 -31 51 3 c45 4 54 1 76 -24 14 -15 26 -33 26
-39 0 -6 3 -8 7 -4 4 4 8 17 8 28 0 12 6 23 13 25 6 3 12 -2 12 -11 0 -8 9
-20 21 -26 17 -10 21 -8 26 9 7 26 23 26 75 1 45 -22 127 -27 145 -9 6 6 23 9
39 7 31 -3 31 1 18 -101 -5 -38 -3 -52 12 -68 31 -35 16 -155 -16 -123 -7 7
-25 7 -55 0 -44 -10 -61 -26 -29 -26 12 0 15 -6 10 -22 -12 -39 -19 -108 -11
-108 4 0 21 10 38 21 18 12 9 2 -18 -23 -28 -25 -60 -66 -73 -90 -13 -26 -32
-49 -45 -53 l-22 -7 25 -8 c18 -6 5 -8 -47 -9 -93 -1 -183 -20 -160 -32 57
-33 192 -31 272 2 l30 12 -35 7 c-30 5 -26 7 30 12 41 3 83 14 110 29 l45 24
-82 3 -83 3 35 30 c19 17 37 39 40 50 4 11 11 17 16 14 14 -9 11 -41 -6 -55
-20 -17 -10 -30 23 -30 35 0 121 41 146 69 19 21 19 21 0 21 -11 0 -43 -6 -71
-13 l-51 -14 20 27 c11 15 23 52 26 81 7 58 29 67 25 11 -2 -28 0 -33 14 -27
12 4 10 -2 -7 -21 l-25 -27 36 7 c30 5 39 2 60 -21 13 -16 33 -43 43 -61 23
-43 18 -48 -90 -95 -417 -181 -873 -206 -1309 -70 -90 28 -265 102 -265 112 0
3 9 21 20 39 14 23 18 38 11 45 -6 8 -2 21 14 41 19 24 26 26 43 17 11 -6 31
-11 43 -11 22 0 21 1 -9 33 -18 18 -32 39 -32 47 0 8 8 3 18 -12 9 -16 21 -28
27 -28 5 0 22 -21 37 -46 23 -37 24 -43 8 -34 -10 5 -38 10 -61 10 -41 0 -42
0 -24 -20 28 -31 97 -60 143 -60 l43 0 -20 28 c-10 15 -22 50 -25 77 -4 36 -3
43 3 23 14 -43 50 -95 82 -121 l30 -23 -65 4 c-35 2 -72 -1 -82 -6 -17 -10
-15 -13 21 -28 46 -20 175 -31 201 -16 16 9 16 10 -3 16 -10 3 -27 22 -36 41
-9 19 -32 51 -50 72 -19 21 -37 54 -40 73 -3 19 -9 45 -13 58 -4 15 -2 22 7
22 18 0 54 39 64 68 6 22 11 23 53 17 26 -4 48 -8 50 -10 2 -2 -4 -18 -13 -35
-24 -47 -31 -132 -12 -148 23 -19 133 -35 157 -22 31 17 25 40 -10 40 -28 0
-30 2 -30 38 0 20 8 53 18 72 18 38 10 35 172 54 30 4 80 12 110 18 44 10 50
13 30 18 -17 4 -25 13 -25 29 0 18 -10 27 -45 40 -46 17 -69 17 -82 -2 -4 -7
-17 -6 -38 3 -29 12 -34 12 -47 -5 -11 -16 -17 -17 -32 -8 -10 6 -35 15 -55
18 -21 4 -36 13 -36 21 0 8 -11 14 -26 14 -15 0 -42 9 -60 21 -19 11 -38 18
-43 14 -16 -9 -119 48 -130 73 -6 12 -18 22 -26 22 -9 0 -33 11 -53 25 -20 14
-38 21 -40 15 -2 -5 -21 0 -43 13 -35 19 -39 25 -35 50 3 16 13 35 21 43 11
11 12 20 5 34 -7 13 -6 21 5 30 8 7 15 21 15 32 0 11 16 35 36 53 23 22 34 40
30 50 -5 13 -10 14 -27 5 -46 -25 -121 -42 -133 -30 -8 9 -4 17 16 33 39 32
135 83 121 65 -38 -45 39 -13 162 69 47 31 65 39 65 28z m-470 -26 c0 -5 -4
-9 -10 -9 -5 0 -10 7 -10 16 0 8 5 12 10 9 6 -3 10 -10 10 -16z m1180 -18 c0
-21 -13 -41 -26 -41 -11 0 -12 -4 -4 -19 17 -32 -6 -34 -49 -4 -46 32 -51 43
-18 43 12 1 33 7 47 15 29 17 50 19 50 6z m-142 -122 c34 -32 62 -61 62 -64 0
-15 -61 -3 -73 16 -14 20 -16 20 -25 2 -8 -13 -14 -15 -22 -7 -8 8 -7 14 5 24
19 16 19 30 0 30 -9 0 -21 12 -28 28 -6 15 -20 36 -29 46 -10 11 -18 24 -18
29 0 10 40 -22 128 -104z m-838 76 c0 -9 -83 -65 -97 -65 -29 0 -10 22 40 45
57 27 57 27 57 20z m-136 -602 l34 -37 -31 -23 c-17 -13 -34 -23 -37 -23 -4 0
-6 27 -6 60 0 33 2 60 3 60 2 0 18 -17 37 -37z m1736 -18 c0 -50 -2 -55 -17
-46 -48 27 -48 27 -17 64 16 20 30 36 32 36 1 1 2 -24 2 -54z m-12 -437 c7 -1
11 -6 8 -13 -2 -6 5 -22 15 -36 30 -39 21 -47 -10 -9 -35 41 -53 34 -22 -8 26
-37 27 -51 2 -28 -15 14 -24 15 -38 8 -17 -10 -16 -12 7 -22 23 -10 22 -10 -9
-5 -42 6 -50 13 -31 25 18 11 6 25 -15 16 -14 -5 -14 -8 0 -35 8 -17 15 -31
15 -33 0 -2 -18 -4 -40 -6 -35 -2 -40 0 -37 17 1 11 -2 19 -8 18 -5 -1 -9 -6
-8 -12 1 -5 5 -23 8 -40 4 -28 4 -27 -13 7 -20 45 -28 47 -35 12 -3 -16 0 -28
9 -31 8 -3 14 -9 14 -14 0 -5 -13 -3 -29 6 -32 16 -51 38 -29 33 7 -2 14 2 14
7 0 8 -25 9 -34 1 -1 -2 3 -17 9 -35 6 -18 9 -34 6 -37 -3 -3 -11 11 -18 30
-15 41 -34 49 -25 10 5 -19 3 -25 -6 -21 -7 2 -12 11 -10 20 1 8 -5 17 -15 19
-11 2 2 11 33 21 43 15 51 21 47 37 -4 16 0 20 19 20 13 0 28 -4 34 -9 12 -13
138 45 129 59 -13 21 4 43 28 35 12 -3 28 -7 35 -7z m-1694 -27 c3 -4 44 -25
91 -46 83 -37 86 -38 100 -19 12 17 15 17 28 4 18 -19 34 -65 19 -56 -6 3 -16
-9 -23 -29 -7 -19 -17 -35 -21 -35 -5 0 -2 16 6 35 20 47 1 56 -21 11 -9 -20
-21 -36 -25 -36 -5 0 -4 9 2 19 14 28 13 33 -12 29 -11 -2 -23 3 -26 11 -4 11
2 13 27 8 38 -8 42 8 4 18 -28 7 -53 -13 -53 -42 0 -7 -4 -13 -10 -13 -13 0
-13 6 1 31 9 18 8 20 -12 17 -12 -2 -24 3 -27 11 -3 10 3 12 27 6 32 -7 44 8
15 19 -30 12 -44 6 -61 -26 -13 -25 -18 -29 -21 -15 -2 9 -12 17 -23 17 -15 0
-19 7 -18 33 2 30 2 30 6 5 5 -32 23 -38 23 -8 0 18 3 19 20 10 13 -7 20 -7
20 -1 0 6 -13 17 -30 26 -16 9 -30 18 -30 20 0 8 19 5 24 -4z m1193 -7 c-3 -3
-12 -4 -19 -1 -8 3 -5 6 6 6 11 1 17 -2 13 -5z m108 -117 c11 -7 21 -16 21
-22 1 -5 4 -26 8 -45 5 -27 4 -32 -6 -22 -7 7 -21 12 -31 12 -10 0 -21 9 -24
20 -10 37 -23 20 -18 -22 l5 -43 -13 37 c-14 42 -27 59 -27 35 0 -9 -10 -17
-22 -19 -31 -4 -23 -24 8 -21 18 1 24 -3 24 -18 0 -15 -4 -17 -17 -10 -10 5
-26 12 -35 15 -25 8 -22 35 5 46 25 10 13 13 -18 4 -17 -4 -20 -12 -18 -47 2
-32 1 -37 -6 -22 -5 11 -10 30 -10 43 -1 12 -6 22 -12 22 -8 0 -10 -14 -6 -40
3 -22 1 -40 -4 -40 -5 0 -9 9 -9 19 0 25 -10 51 -20 51 -5 0 -6 -10 -3 -21 4
-16 2 -20 -8 -17 -8 3 -13 12 -11 22 2 9 -2 16 -8 16 -5 0 -10 -19 -11 -42 0
-24 -3 -37 -6 -30 -2 6 -13 12 -23 12 -10 0 -22 5 -25 10 -3 6 -15 10 -26 10
-16 0 -19 -4 -13 -22 l6 -23 -26 24 c-29 27 -34 44 -11 35 8 -4 15 -1 15 5 0
6 -10 11 -22 12 -52 1 18 18 82 19 89 2 135 12 135 30 0 8 9 16 20 17 11 2 14
0 8 -3 -21 -9 -15 -24 10 -24 40 0 65 11 70 31 6 22 41 25 72 6z m-880 -22
c118 -22 115 -21 115 -45 0 -11 7 -20 15 -20 18 0 20 26 3 33 -7 3 -1 6 13 6
15 1 32 8 39 16 17 20 32 19 65 -7 15 -11 39 -21 53 -22 22 -1 28 -7 30 -28 2
-18 -1 -28 -9 -28 -10 0 -10 -3 -1 -12 22 -22 13 -29 -13 -11 -22 16 -37 41
-17 29 4 -2 13 -2 19 2 7 5 3 11 -13 19 -21 10 -24 9 -24 -10 0 -12 -5 -29
-10 -37 -8 -12 -10 -10 -10 8 0 18 -5 23 -22 20 -19 -2 -22 1 -20 20 2 12 -1
22 -7 22 -10 0 -32 -90 -25 -102 3 -4 0 -8 -5 -8 -6 0 -11 4 -11 9 0 4 -11 6
-25 3 -18 -3 -25 0 -25 11 0 9 5 19 10 22 17 11 12 38 -6 31 -23 -9 -37 3 -23
20 6 8 9 17 5 21 -3 3 -6 0 -6 -8 0 -12 -2 -12 -10 1 -7 12 -10 11 -15 -5 -4
-11 -10 -29 -15 -40 -8 -19 -9 -19 -9 3 -1 15 -7 22 -20 22 -11 0 -23 5 -26
10 -4 6 -16 10 -27 8 -12 -2 -23 3 -25 10 -6 15 21 16 48 2 15 -8 19 -7 19 3
0 15 -55 31 -70 22 -5 -3 -11 -19 -15 -35 -8 -38 -23 -40 -19 -2 2 15 1 20 -2
10 -7 -21 -30 -30 -42 -15 -14 19 -22 47 -13 47 5 0 11 -9 14 -20 3 -11 10
-20 17 -20 7 0 9 8 5 21 -6 19 -4 21 14 16 37 -9 22 9 -16 21 -33 9 -34 11 -8
8 17 -2 71 -11 120 -21z m427 -90 c-2 -25 -8 -45 -13 -45 -5 0 -9 5 -9 10 0 6
-9 10 -20 10 -13 0 -20 7 -20 19 0 11 -6 22 -12 24 -7 3 3 6 22 8 l35 2 -35 7
-35 7 45 2 45 1 -3 -45z"/>
<path d="M3434 1605 c-5 -22 2 -65 9 -54 2 2 15 21 30 42 l28 37 -30 0 c-24 0
-32 -5 -37 -25z"/>
<path d="M2279 1663 c-13 -15 -12 -15 11 -3 34 17 36 20 18 20 -9 0 -22 -7
-29 -17z"/>
<path d="M3186 1021 c-18 -7 -16 -9 12 -19 34 -12 35 -12 26 12 -7 18 -10 18
-38 7z"/>
<path d="M2530 789 c0 -6 24 -34 53 -64 41 -41 64 -55 98 -62 42 -9 40 -9 -49
-16 -120 -9 -140 -19 -75 -38 53 -15 169 -19 223 -6 29 7 26 4 -20 -20 l-55
-28 49 -3 c64 -4 138 12 206 46 l55 27 -55 3 c-35 2 -49 6 -40 12 10 6 1 16
-35 39 -57 36 -103 51 -159 51 -38 0 -39 -1 -22 -19 21 -23 108 -67 151 -77
l30 -7 -30 -8 c-17 -5 -32 -5 -35 1 -3 5 -25 12 -48 16 -23 4 -42 12 -42 18 0
24 -97 107 -148 126 -31 12 -52 16 -52 9z"/>
<path d="M3480 791 c-47 -15 -85 -39 -130 -85 l-44 -46 27 0 c42 0 100 34 141
81 30 35 45 62 34 58 -2 0 -14 -4 -28 -8z"/>
<path d="M3305 733 c-58 -7 -110 -26 -155 -57 -25 -17 -63 -33 -85 -36 l-40
-5 45 -27 c61 -36 112 -48 195 -47 l70 1 -55 26 c-30 14 -77 31 -105 38 l-50
12 46 1 c51 1 133 38 169 76 15 16 19 24 9 24 -8 -1 -27 -4 -44 -6z m-68 -49
c-3 -3 -12 -4 -19 -1 -8 3 -5 6 6 6 11 1 17 -2 13 -5z m-62 -84 c3 -6 -1 -7
-9 -4 -18 7 -21 14 -7 14 6 0 13 -4 16 -10z"/>
<path d="M3825 650 c-8 -13 9 -20 24 -11 10 6 9 10 -3 14 -8 3 -18 2 -21 -3z"/>
<path d="M3816 596 c3 -8 12 -12 20 -9 17 6 9 23 -11 23 -8 0 -12 -6 -9 -14z"/>
<path d="M3645 560 c3 -5 13 -10 21 -10 8 0 12 5 9 10 -3 6 -13 10 -21 10 -8
0 -12 -4 -9 -10z"/>
<path d="M3743 545 c0 -25 11 -33 21 -16 7 11 -3 41 -14 41 -4 0 -7 -11 -7
-25z"/>
<path d="M2190 559 c0 -5 5 -7 10 -4 6 3 10 8 10 11 0 2 -4 4 -10 4 -5 0 -10
-5 -10 -11z"/>
<path d="M2380 550 c0 -5 5 -10 10 -10 6 0 10 5 10 10 0 6 -4 10 -10 10 -5 0
-10 -4 -10 -10z"/>
<path d="M3425 499 c-10 -15 -2 -19 23 -12 12 3 19 9 16 14 -7 12 -31 11 -39
-2z"/>
<path d="M3464 464 c3 -9 6 -18 6 -20 0 -2 5 -4 10 -4 6 0 10 9 10 20 0 12 -7
20 -16 20 -11 0 -14 -5 -10 -16z"/>
<path d="M3135 429 c-13 -19 4 -22 37 -6 l33 17 -32 0 c-17 0 -35 -5 -38 -11z"/>
<path d="M3181 411 c-9 -6 -10 -11 -2 -15 13 -8 31 1 31 15 0 11 -11 11 -29 0z"/>
<path d="M2807 473 c-14 -13 -6 -23 19 -23 22 0 25 2 14 15 -14 16 -23 19 -33
8z"/>
<path d="M2630 450 c0 -5 7 -10 15 -10 8 0 15 5 15 10 0 6 -7 10 -15 10 -8 0
-15 -4 -15 -10z"/>
<path d="M2760 406 c0 -19 5 -38 10 -41 6 -4 10 10 10 34 0 23 -4 41 -10 41
-5 0 -10 -15 -10 -34z"/>
<path d="M2840 424 c0 -9 5 -14 12 -12 18 6 21 28 4 28 -9 0 -16 -7 -16 -16z"/>
<path d="M2910 430 c0 -5 5 -10 11 -10 5 0 7 5 4 10 -3 6 -8 10 -11 10 -2 0
-4 -4 -4 -10z"/>
<path d="M2735 360 c-3 -5 1 -10 10 -10 9 0 13 5 10 10 -3 6 -8 10 -10 10 -2
0 -7 -4 -10 -10z"/>
<path d="M2985 399 c-4 -6 -5 -13 -2 -16 7 -7 27 6 27 18 0 12 -17 12 -25 -2z"/>
<path d="M2854 2158 l-19 -23 23 19 c21 18 27 26 19 26 -2 0 -12 -10 -23 -22z"/>
</g>
</svg>
